<?xml version="1.0" standalone="no"?><!DOCTYPE svg PUBLIC "-//W3C//DTD SVG 1.1//EN" "http://www.w3.org/Graphics/SVG/1.1/DTD/svg11.dtd"><svg t="1705304541803" class="icon" viewBox="0 0 1025 1024" version="1.1" xmlns="http://www.w3.org/2000/svg" p-id="3911" xmlns:xlink="http://www.w3.org/1999/xlink" width="48.046875" height="48"><path d="M0.904748 0.901567h1022.196866v1022.196866H0.904748z" fill="#404442" p-id="3912"></path><path d="M1024.003181 1024H0.003181V0h1024v1024zM1.806315 1022.196866h1020.393731V1.803134H1.806315v1020.393732z" fill="#B3B3B3" p-id="3913"></path><path d="M0.904748 972.069731h1022.196866" fill="#404442" p-id="3914"></path><path d="M0.904748 971.168163h1022.196866v1.803135H0.904748z" fill="#B3B3B3" p-id="3915"></path><path d="M0.904748 920.860715h1022.196866" fill="#404442" p-id="3916"></path><path d="M0.904748 919.959148h1022.196866v1.803134H0.904748z" fill="#B3B3B3" p-id="3917"></path><path d="M0.904748 869.832013h1022.196866" fill="#404442" p-id="3918"></path><path d="M0.904748 868.930446h1022.196866v1.803134H0.904748z" fill="#B3B3B3" p-id="3919"></path><path d="M0.904748 818.622997h1022.196866" fill="#404442" p-id="3920"></path><path d="M0.904748 817.72143h1022.196866v1.803134H0.904748z" fill="#B3B3B3" p-id="3921"></path><path d="M0.904748 767.594295h1022.196866" fill="#404442" p-id="3922"></path><path d="M0.904748 765.971474h1022.196866v3.245642H0.904748z" fill="#CCCCCC" p-id="3923"></path><path d="M0.904748 716.565593h1022.196866" fill="#404442" p-id="3924"></path><path d="M0.904748 715.664025h1022.196866v1.803135H0.904748z" fill="#B3B3B3" p-id="3925"></path><path d="M0.904748 665.356577h1022.196866" fill="#404442" p-id="3926"></path><path d="M0.904748 664.45501h1022.196866v1.803134H0.904748z" fill="#B3B3B3" p-id="3927"></path><path d="M0.904748 614.327875h1022.196866" fill="#404442" p-id="3928"></path><path d="M0.904748 613.426307h1022.196866v1.803135H0.904748z" fill="#B3B3B3" p-id="3929"></path><path d="M0.904748 563.118859h1022.196866" fill="#404442" p-id="3930"></path><path d="M0.904748 562.217292h1022.196866v1.803134H0.904748z" fill="#B3B3B3" p-id="3931"></path><path d="M0.904748 512.090157h1022.196866" fill="#404442" p-id="3932"></path><path d="M0.904748 510.467336h1022.196866v3.245642H0.904748z" fill="#CCCCCC" p-id="3933"></path><path d="M0.904748 460.881141h1022.196866" fill="#404442" p-id="3934"></path><path d="M0.904748 459.979574h1022.196866v1.803134H0.904748z" fill="#B3B3B3" p-id="3935"></path><path d="M0.904748 409.852439h1022.196866" fill="#404442" p-id="3936"></path><path d="M0.904748 408.950872h1022.196866v1.803134H0.904748z" fill="#B3B3B3" p-id="3937"></path><path d="M0.904748 358.643423h1022.196866" fill="#404442" p-id="3938"></path><path d="M0.904748 357.741856h1022.196866v1.803134H0.904748z" fill="#B3B3B3" p-id="3939"></path><path d="M0.904748 307.614721h1022.196866" fill="#404442" p-id="3940"></path><path d="M0.904748 306.713154h1022.196866v1.803134H0.904748z" fill="#B3B3B3" p-id="3941"></path><path d="M0.904748 256.405705h1022.196866" fill="#404442" p-id="3942"></path><path d="M0.904748 254.782884h1022.196866v3.245642H0.904748z" fill="#CCCCCC" p-id="3943"></path><path d="M0.904748 205.377003h1022.196866" fill="#404442" p-id="3944"></path><path d="M0.904748 204.475436h1022.196866v1.803134H0.904748z" fill="#B3B3B3" p-id="3945"></path><path d="M0.904748 154.167987h1022.196866" fill="#404442" p-id="3946"></path><path d="M0.904748 153.26642h1022.196866v1.803134H0.904748z" fill="#B3B3B3" p-id="3947"></path><path d="M0.904748 103.139285h1022.196866" fill="#404442" p-id="3948"></path><path d="M0.904748 102.237718h1022.196866v1.803134H0.904748z" fill="#B3B3B3" p-id="3949"></path><path d="M0.904748 51.930269h1022.196866" fill="#404442" p-id="3950"></path><path d="M0.904748 51.028702h1022.196866v1.803135H0.904748z" fill="#B3B3B3" p-id="3951"></path><path d="M972.072911 0.901567v1022.196866" fill="#404442" p-id="3952"></path><path d="M971.171344 0.901567h1.803134v1022.196866h-1.803134z" fill="#B3B3B3" p-id="3953"></path><path d="M920.863896 0.901567v1022.196866" fill="#404442" p-id="3954"></path><path d="M919.962328 0.901567h1.803135v1022.196866h-1.803135z" fill="#B3B3B3" p-id="3955"></path><path d="M869.835193 0.901567v1022.196866" fill="#404442" p-id="3956"></path><path d="M868.933626 0.901567h1.803135v1022.196866h-1.803135z" fill="#B3B3B3" p-id="3957"></path><path d="M818.626178 0.901567v1022.196866" fill="#404442" p-id="3958"></path><path d="M817.724611 0.901567h1.803134v1022.196866h-1.803134z" fill="#B3B3B3" p-id="3959"></path><path d="M767.597475 0.901567v1022.196866" fill="#404442" p-id="3960"></path><path d="M765.974655 0.901567h3.245641v1022.196866h-3.245641z" fill="#CCCCCC" p-id="3961"></path><path d="M716.568773 0.901567v1022.196866" fill="#404442" p-id="3962"></path><path d="M715.667206 0.901567h1.803134v1022.196866h-1.803134z" fill="#B3B3B3" p-id="3963"></path><path d="M665.359758 0.901567v1022.196866" fill="#404442" p-id="3964"></path><path d="M664.45819 0.901567h1.803135v1022.196866h-1.803135z" fill="#B3B3B3" p-id="3965"></path><path d="M614.331055 0.901567v1022.196866" fill="#404442" p-id="3966"></path><path d="M613.429488 0.901567h1.803134v1022.196866h-1.803134z" fill="#B3B3B3" p-id="3967"></path><path d="M563.12204 0.901567v1022.196866" fill="#404442" p-id="3968"></path><path d="M562.220472 0.901567h1.803135v1022.196866h-1.803135z" fill="#B3B3B3" p-id="3969"></path><path d="M512.093337 0.901567v1022.196866" fill="#404442" p-id="3970"></path><path d="M510.470516 0.901567h3.245642v1022.196866h-3.245642z" fill="#CCCCCC" p-id="3971"></path><path d="M460.884322 0.901567v1022.196866" fill="#404442" p-id="3972"></path><path d="M459.982755 0.901567h1.803134v1022.196866h-1.803134z" fill="#B3B3B3" p-id="3973"></path><path d="M409.85562 0.901567v1022.196866" fill="#404442" p-id="3974"></path><path d="M408.954052 0.901567h1.803135v1022.196866h-1.803135z" fill="#B3B3B3" p-id="3975"></path><path d="M358.646604 0.901567v1022.196866" fill="#404442" p-id="3976"></path><path d="M357.745037 0.901567h1.803134v1022.196866h-1.803134z" fill="#B3B3B3" p-id="3977"></path><path d="M307.617902 0.901567v1022.196866" fill="#404442" p-id="3978"></path><path d="M306.716334 0.901567h1.803135v1022.196866h-1.803135z" fill="#B3B3B3" p-id="3979"></path><path d="M256.408886 0.901567v1022.196866" fill="#404442" p-id="3980"></path><path d="M254.786065 0.901567h3.245642v1022.196866h-3.245642z" fill="#CCCCCC" p-id="3981"></path><path d="M205.380184 0.901567v1022.196866" fill="#404442" p-id="3982"></path><path d="M204.478617 0.901567h1.803134v1022.196866h-1.803134z" fill="#B3B3B3" p-id="3983"></path><path d="M154.171168 0.901567v1022.196866" fill="#404442" p-id="3984"></path><path d="M153.269601 0.901567h1.803134v1022.196866h-1.803134z" fill="#B3B3B3" p-id="3985"></path><path d="M103.142466 0.901567v1022.196866" fill="#404442" p-id="3986"></path><path d="M102.240899 0.901567h1.803134v1022.196866h-1.803134z" fill="#B3B3B3" p-id="3987"></path><path d="M51.93345 0.901567v1022.196866" fill="#404442" p-id="3988"></path><path d="M51.031883 0.901567h1.803134v1022.196866h-1.803134z" fill="#B3B3B3" p-id="3989"></path><path d="M458.720561 889.305864v30.653284h7.573164v-11.359747h13.703821v-7.573164h-13.703821v-4.327522h22.539179v-7.392851h-22.539179zM499.11077 912.385983v-23.080119h-7.392851v30.653284h25.063568V912.385983zM551.58198 901.567177h-21.096672c-1.442507 0-2.344075-1.081881-2.344075-2.344074 0-1.442507 1.081881-2.344075 2.344075-2.344075h19.654164v-7.573164h-19.834478c-5.409403 0-9.736926 4.327522-9.736925 9.917239s4.327522 9.917239 9.736925 9.917239h21.096672c1.803134 0 1.803134 3.425955 0 3.425955h-31.735164v7.573164h31.735164c5.048776 0 8.294418-4.147209 8.294418-9.376298 0-5.048776-3.065328-9.195985-8.114104-9.195986zM590.169055 902.829371v9.556612h-19.834478v-23.080119h-7.573164V912.385983c0 4.147209 3.245642 7.573164 7.573164 7.573165h19.834478c3.966896 0 7.573164-3.425955 7.573164-7.573165v-2.704701l-7.573164-6.851911zM625.330175 920.139461l-27.768269-30.833597h-7.392851v9.917239l7.392851 6.85191v-5.589716l17.490403 19.654164z" fill="#C5CBC9" p-id="3990"></path><path d="M625.330175 912.74661v-23.62106h-21.457299z" fill="#C5CBC9" p-id="3991"></path><path d="M401.020261 904.452192h17.85103v8.474732h-17.85103zM401.020261 892.912132h17.85103v1.803135h-17.85103zM401.020261 895.616834h17.85103v1.803134h-17.85103zM401.020261 898.501849h17.85103v1.803134h-17.85103zM401.020261 901.567177h17.85103v1.803135h-17.85103zM410.39656 922.663849l6.130657-6.671597v-1.983448h-12.982568v1.983448l5.950344 6.671597zM395.430545 941.777073c-2.524388 0-3.606269-0.54094-3.606269-1.442507-0.180313-1.442507 2.885015-1.983448 4.147209-2.163761 3.966896-0.54094 37.144568-4.327522 42.553971-4.868463 4.327522-0.54094 9.195985-1.262194 9.195985-1.803134 0-0.54094-17.670717 0.180313-25.784821 0.721253-3.065328 0.180313-5.589716 0.54094-7.753478 0.540941-1.803134 0.180313-3.966896 0.180313-6.31097 0.54094-16.588836 1.081881-20.375418 1.262194-21.096672 0.54094-0.180313-0.180313-0.180313-0.360627-0.180314-0.54094 0-0.721254 0-1.442507 10.99912-2.704702 5.589716-0.54094 11.359746-1.442507 12.261314-1.442507 3.425955-0.360627 31.013911-3.065328 31.01391-3.606269 0-0.721254-16.047896-1.262194-18.93291-1.262194h-12.621941v-1.442507h12.621941c1.442507 0 6.851911 0.180313 11.54006 0.54094 10.097552 0.721254 10.097552 1.442507 10.097552 1.983448 0 0.721254 0 1.262194-16.228209 3.065328-7.933791 0.901567-16.228209 1.803134-17.31009 1.803135-4.327522 0.54094-20.014791 1.983448-20.014791 2.704701s12.081-0.901567 17.85103-1.262194c2.344075-0.180313 4.327522-0.360627 6.491283-0.54094s4.507836-0.360627 7.753478-0.540941c14.244761-1.262194 25.424194-1.983448 27.227329-0.180313 0.360627 0.360627 0.54094 0.54094 0.54094 0.901567 0 0.54094 0 0.901567-3.425955 1.803135-1.262194 0.360627-3.966896 0.901567-7.212538 1.262194-5.409403 0.54094-38.767389 4.327522-42.55397 4.868462-1.262194 0.180313-2.704702 0.360627-2.704702 0.540941 0 0.180313 1.081881 0.180313 2.344075 0.180313 5.22909-0.180313 32.636732 0 32.817045 0v1.442508c-0.180313 0-27.587956-0.180313-32.817045 0-0.54094 0.360627-0.721254 0.360627-0.901567 0.360626zM429.870411 880.470505l-6.491284 7.753478-9.015672-3.065328h-8.835358l-9.015672 3.065328-6.491283-7.753478-3.606269 2.704702 8.835358 6.491284 5.409403 1.442507h18.932911l5.409403-1.442507 8.835358-6.491284-3.966895-2.704702z m-12.081 9.015672h-15.506956c-1.442507 0-3.065328-0.901567-3.065328-0.901567l6.491283-2.344075h8.655045l6.491284 2.344075c-0.180313 0.180313-1.622821 0.901567-3.065328 0.901567z" fill="#C5CBC9" p-id="3992"></path><path d="M419.772858 874.159535l5.77003-4.688149-3.786582-2.344075-5.229089 5.950344c-1.983448-0.360627-3.966896-0.54094-6.491284-0.540941-2.344075 0-4.147209 0.180313-5.950343 0.540941l-5.22909-5.950344-3.786582 2.344075 5.589716 4.327522c-6.31097 1.803134-9.376299 5.048776-9.376298 5.048776l5.950343 7.212538 7.933791-3.065329h9.556612l7.933791 3.065329 5.950344-7.212538c0 0.360627-2.704702-2.704702-8.835359-4.688149z m-19.834477 5.048776c-0.54094 0-1.081881-0.54094-1.081881-1.08188s0.54094-1.081881 1.081881-1.081881 1.081881 0.54094 1.08188 1.081881-0.721254 1.081881-1.08188 1.08188z m19.473851 0c-0.54094 0-1.081881-0.54094-1.081881-1.08188s0.54094-1.081881 1.081881-1.081881 1.081881 0.54094 1.08188 1.081881-0.54094 1.081881-1.08188 1.08188z" fill="#C5CBC9" p-id="3993"></path></svg>