<?xml version="1.0" standalone="no"?><!DOCTYPE svg PUBLIC "-//W3C//DTD SVG 1.1//EN" "http://www.w3.org/Graphics/SVG/1.1/DTD/svg11.dtd"><svg t="1705305585179" class="icon" viewBox="0 0 1025 1024" version="1.1" xmlns="http://www.w3.org/2000/svg" p-id="4900" xmlns:xlink="http://www.w3.org/1999/xlink" width="48.046875" height="48"><path d="M0.708122 0.848619h1022.302762v1022.302762H0.708122z" fill="#404442" p-id="4901"></path><path d="M1023.859503 1024H0.000939V0h1023.858564v1024z m-1022.444199-1.414365h1021.029834V1.414365H1.415304v1021.17127z" fill="#B3B3B3" p-id="4902"></path><path d="M0.566685 952.998895h1022.585635" fill="#404442" p-id="4903"></path><path d="M0.566685 952.291713h1022.585635v1.414364H0.566685z" fill="#B3B3B3" p-id="4904"></path><path d="M0.566685 992.883978h1022.585635" fill="#404442" p-id="4905"></path><path d="M0.566685 992.176796h1022.585635v1.414364H0.566685z" fill="#B3B3B3" p-id="4906"></path><path d="M0.566685 911.699448h1022.585635v2.545856H0.566685z" fill="#CCCCCC" p-id="4907"></path><path d="M0.566685 872.945856h1022.585635" fill="#404442" p-id="4908"></path><path d="M0.566685 872.238674h1022.585635v1.414365H0.566685z" fill="#B3B3B3" p-id="4909"></path><path d="M0.566685 832.777901h1022.585635" fill="#404442" p-id="4910"></path><path d="M0.566685 832.070718h1022.585635v1.414365H0.566685z" fill="#B3B3B3" p-id="4911"></path><path d="M0.566685 792.751381h1022.585635" fill="#404442" p-id="4912"></path><path d="M0.566685 792.044199h1022.585635v1.414365H0.566685z" fill="#B3B3B3" p-id="4913"></path><path d="M0.566685 752.583425h1022.585635" fill="#404442" p-id="4914"></path><path d="M0.566685 751.876243h1022.585635v1.414365H0.566685z" fill="#B3B3B3" p-id="4915"></path><path d="M0.566685 711.283978h1022.585635v2.545856H0.566685z" fill="#CCCCCC" p-id="4916"></path><path d="M0.566685 672.38895h1022.585635" fill="#404442" p-id="4917"></path><path d="M0.566685 671.681768h1022.585635v1.414365H0.566685z" fill="#B3B3B3" p-id="4918"></path><path d="M0.566685 632.362431h1022.585635" fill="#404442" p-id="4919"></path><path d="M0.566685 631.655249h1022.585635v1.414364H0.566685z" fill="#B3B3B3" p-id="4920"></path><path d="M0.566685 592.194475h1022.585635" fill="#404442" p-id="4921"></path><path d="M0.566685 591.487293h1022.585635v1.414364H0.566685z" fill="#B3B3B3" p-id="4922"></path><path d="M0.566685 552.167956h1022.585635" fill="#404442" p-id="4923"></path><path d="M0.566685 551.460773h1022.585635v1.414365H0.566685z" fill="#B3B3B3" p-id="4924"></path><path d="M0.566685 510.727072h1022.585635v2.545856H0.566685z" fill="#CCCCCC" p-id="4925"></path><path d="M0.566685 471.973481h1022.585635" fill="#404442" p-id="4926"></path><path d="M0.566685 471.266298h1022.585635v1.414365H0.566685z" fill="#B3B3B3" p-id="4927"></path><path d="M0.566685 431.805525h1022.585635" fill="#404442" p-id="4928"></path><path d="M0.566685 431.098343h1022.585635v1.414364H0.566685z" fill="#B3B3B3" p-id="4929"></path><path d="M0.566685 391.779006h1022.585635" fill="#404442" p-id="4930"></path><path d="M0.566685 391.071823h1022.585635v1.414365H0.566685z" fill="#B3B3B3" p-id="4931"></path><path d="M0.566685 351.752486h1022.585635" fill="#404442" p-id="4932"></path><path d="M0.566685 351.045304h1022.585635v1.414365H0.566685z" fill="#B3B3B3" p-id="4933"></path><path d="M0.566685 310.311602h1022.585635v2.545857H0.566685z" fill="#CCCCCC" p-id="4934"></path><path d="M0.566685 271.558011h1022.585635" fill="#404442" p-id="4935"></path><path d="M0.566685 270.850829h1022.585635v1.414364H0.566685z" fill="#B3B3B3" p-id="4936"></path><path d="M0.566685 231.390055h1022.585635" fill="#404442" p-id="4937"></path><path d="M0.566685 230.682873h1022.585635v1.414365H0.566685z" fill="#B3B3B3" p-id="4938"></path><path d="M0.566685 191.363536h1022.585635" fill="#404442" p-id="4939"></path><path d="M0.566685 190.656354h1022.585635v1.414364H0.566685z" fill="#B3B3B3" p-id="4940"></path><path d="M0.566685 151.19558h1022.585635" fill="#404442" p-id="4941"></path><path d="M0.566685 150.488398h1022.585635v1.414364H0.566685z" fill="#B3B3B3" p-id="4942"></path><path d="M0.566685 109.896133h1022.585635V112.441989H0.566685z" fill="#CCCCCC" p-id="4943"></path><path d="M0.566685 71.001105h1022.585635" fill="#404442" p-id="4944"></path><path d="M0.566685 70.293923h1022.585635v1.414364H0.566685z" fill="#B3B3B3" p-id="4945"></path><path d="M0.566685 31.398895h1022.585635" fill="#404442" p-id="4946"></path><path d="M0.566685 30.691713h1022.585635v1.414364H0.566685z" fill="#B3B3B3" p-id="4947"></path><path d="M952.858398 0.707182v1022.585636" fill="#404442" p-id="4948"></path><path d="M952.151216 0.707182h1.414364v1022.585636h-1.414364z" fill="#B3B3B3" p-id="4949"></path><path d="M992.460608 0.707182v1022.585636" fill="#404442" p-id="4950"></path><path d="M991.753425 0.707182h1.414365v1022.585636h-1.414365z" fill="#B3B3B3" p-id="4951"></path><path d="M911.55895 0.707182h2.545857v1022.585636h-2.545857z" fill="#CCCCCC" p-id="4952"></path><path d="M872.805359 0.707182v1022.585636" fill="#404442" p-id="4953"></path><path d="M872.098177 0.707182h1.414364v1022.585636h-1.414364z" fill="#B3B3B3" p-id="4954"></path><path d="M832.637403 0.707182v1022.585636" fill="#404442" p-id="4955"></path><path d="M831.930221 0.707182h1.414365v1022.585636h-1.414365z" fill="#B3B3B3" p-id="4956"></path><path d="M792.610884 0.707182v1022.585636" fill="#404442" p-id="4957"></path><path d="M791.903702 0.707182h1.414364v1022.585636h-1.414364z" fill="#B3B3B3" p-id="4958"></path><path d="M752.442928 0.707182v1022.585636" fill="#404442" p-id="4959"></path><path d="M751.735746 0.707182h1.414365v1022.585636h-1.414365z" fill="#B3B3B3" p-id="4960"></path><path d="M711.143481 0.707182h2.545856v1022.585636h-2.545856z" fill="#CCCCCC" p-id="4961"></path><path d="M672.248453 0.707182v1022.585636" fill="#404442" p-id="4962"></path><path d="M671.541271 0.707182h1.414364v1022.585636h-1.414364z" fill="#B3B3B3" p-id="4963"></path><path d="M632.221934 0.707182v1022.585636" fill="#404442" p-id="4964"></path><path d="M631.514751 0.707182h1.414365v1022.585636h-1.414365z" fill="#B3B3B3" p-id="4965"></path><path d="M592.053978 0.707182v1022.585636" fill="#404442" p-id="4966"></path><path d="M591.346796 0.707182h1.414364v1022.585636h-1.414364z" fill="#B3B3B3" p-id="4967"></path><path d="M552.027459 0.707182v1022.585636" fill="#404442" p-id="4968"></path><path d="M551.320276 0.707182h1.414365v1022.585636h-1.414365z" fill="#B3B3B3" p-id="4969"></path><path d="M510.586575 0.707182h2.545856v1022.585636h-2.545856z" fill="#CCCCCC" p-id="4970"></path><path d="M471.832983 0.707182v1022.585636" fill="#404442" p-id="4971"></path><path d="M471.125801 0.707182h1.414365v1022.585636h-1.414365z" fill="#B3B3B3" p-id="4972"></path><path d="M431.665028 0.707182v1022.585636" fill="#404442" p-id="4973"></path><path d="M430.957845 0.707182h1.414365v1022.585636h-1.414365z" fill="#B3B3B3" p-id="4974"></path><path d="M391.638508 0.707182v1022.585636" fill="#404442" p-id="4975"></path><path d="M390.931326 0.707182h1.414365v1022.585636h-1.414365z" fill="#B3B3B3" p-id="4976"></path><path d="M351.611989 0.707182v1022.585636" fill="#404442" p-id="4977"></path><path d="M350.904807 0.707182h1.414364v1022.585636h-1.414364z" fill="#B3B3B3" p-id="4978"></path><path d="M310.171105 0.707182h2.545856v1022.585636h-2.545856z" fill="#CCCCCC" p-id="4979"></path><path d="M271.417514 0.707182v1022.585636" fill="#404442" p-id="4980"></path><path d="M270.710332 0.707182h1.414364v1022.585636h-1.414364z" fill="#B3B3B3" p-id="4981"></path><path d="M231.249558 0.707182v1022.585636" fill="#404442" p-id="4982"></path><path d="M230.542376 0.707182h1.414364v1022.585636h-1.414364z" fill="#B3B3B3" p-id="4983"></path><path d="M191.223039 0.707182v1022.585636" fill="#404442" p-id="4984"></path><path d="M190.515856 0.707182h1.414365v1022.585636h-1.414365z" fill="#B3B3B3" p-id="4985"></path><path d="M151.055083 0.707182v1022.585636" fill="#404442" p-id="4986"></path><path d="M150.347901 0.707182h1.414364v1022.585636h-1.414364z" fill="#B3B3B3" p-id="4987"></path><path d="M109.755635 0.707182H112.301492v1022.585636h-2.545857z" fill="#CCCCCC" p-id="4988"></path><path d="M70.860608 0.707182v1022.585636" fill="#404442" p-id="4989"></path><path d="M70.153425 0.707182h1.414365v1022.585636h-1.414365z" fill="#B3B3B3" p-id="4990"></path><path d="M31.258398 0.707182v1022.585636" fill="#404442" p-id="4991"></path><path d="M30.551216 0.707182h1.414364v1022.585636h-1.414364z" fill="#B3B3B3" p-id="4992"></path><path d="M469.852873 927.398895v24.892818h6.081768v-9.19337h11.173481v-6.223205h-11.173481v-3.394475H494.179945v-6.081768h-18.245304zM502.666133 946.209945v-18.81105h-6.081768v24.892818H516.951216v-6.081768zM545.097072 937.299448h-17.113812c-1.131492 0-1.838674-0.848619-1.838674-1.838675 0-1.131492 0.848619-1.838674 1.838674-1.838674h15.98232v-6.081768h-16.123757c-4.38453 0-7.920442 3.535912-7.920442 8.061879s3.535912 8.061878 7.920442 8.061878h17.113812c1.555801 0 1.555801 2.687293 0 2.687293h-25.741436v6.081768h25.741436c4.101657 0 6.78895-3.394475 6.788951-7.496132 0-4.243094-2.545856-7.637569-6.647514-7.637569zM576.213094 938.289503v7.779005h-16.123757v-18.669613h-6.081768v18.669613c0 3.394475 2.687293 6.081768 6.081768 6.081768H576.213094c3.253039 0 6.081768-2.687293 6.081768-6.081768v-2.262983l-6.081768-5.516022zM604.78326 952.291713l-22.488398-24.892818H576.213094V935.460773l6.081768 5.516023v-4.525967l14.285083 15.840884z" fill="#C5CBC9" p-id="4993"></path><path d="M604.78326 946.492818v-19.235359H587.528011z" fill="#C5CBC9" p-id="4994"></path><path d="M423.17884 939.562431H437.605359v6.930387h-14.426519zM423.17884 930.227624H437.605359v1.555801h-14.426519zM423.17884 932.490608H437.605359v1.555801h-14.426519zM423.17884 934.895028H437.605359v1.555801h-14.426519zM423.17884 937.299448H437.605359v1.555801h-14.426519zM430.816409 954.554696l4.80884-5.516022v-1.697238h-10.466299v1.697238l4.950277 5.516022zM418.652873 969.971271c-1.98011 0-2.970166-0.424309-2.970166-1.131492-0.141436-1.131492 2.40442-1.697238 3.394475-1.697238 3.111602-0.424309 30.125967-3.535912 34.510498-3.960221 3.535912-0.424309 7.496133-0.990055 7.496132-1.414364 0-0.424309-14.285083 0.141436-20.932596 0.565746-2.40442 0.141436-4.525967 0.424309-6.223205 0.424309-1.555801 0.141436-3.253039 0.141436-5.091713 0.424309-13.436464 0.848619-16.548066 0.990055-17.113812 0.42431-0.141436-0.141436-0.141436-0.282873-0.141436-0.42431 0-0.565746 0-1.131492 8.910497-2.262983 4.525967-0.565746 9.19337-1.131492 9.900552-1.131492 2.687293-0.282873 25.034254-2.40442 25.034255-2.970165 0-0.565746-12.870718-0.990055-15.416575-0.990056h-10.324862v-1.131491h10.324862c1.131492 0 5.516022 0.141436 9.334807 0.424309 8.203315 0.565746 8.203315 1.131492 8.203315 1.697238 0 0.565746 0 0.990055-13.153592 2.545856-6.364641 0.707182-13.153591 1.414365-14.00221 1.555801-3.394475 0.424309-16.123757 1.697238-16.123756 2.121547 0 0.565746 9.759116-0.707182 14.426519-0.990055 1.838674-0.141436 3.535912-0.282873 5.233149-0.42431 1.697238-0.141436 3.677348-0.282873 6.223205-0.424309 11.456354-0.990055 20.508287-1.697238 22.064088-0.141437 0.282873 0.282873 0.424309 0.565746 0.424309 0.707183 0 0.424309 0 0.707182-2.687293 1.414364-0.990055 0.282873-3.111602 0.707182-5.940331 0.990056-4.38453 0.424309-31.398895 3.535912-34.510497 3.960221-0.990055 0.141436-2.121547 0.282873-2.121547 0.565746s0.848619 0.141436 1.838674 0.141436c4.243094-0.141436 26.448619 0 26.590055 0v1.131492c-0.141436 0-22.346961-0.141436-26.590055 0h-0.565746zM446.515856 920.327072l-5.233149 6.223204-7.354696-2.545856h-7.071823l-7.354696 2.545856-5.233149-6.223204-2.82873 2.121547 7.071823 5.233149 4.384531 1.272928h15.275138l4.38453-1.272928 7.071824-5.233149-3.111603-2.121547z m-9.900552 7.354696h-12.587845c-1.272928 0-2.40442-0.707182-2.40442-0.707182l5.233149-1.838674h6.78895l5.233149 1.838674c0.282873 0-0.990055 0.707182-2.262983 0.707182z" fill="#C5CBC9" p-id="4995"></path><path d="M438.312541 915.235359l4.667404-3.818784-3.111602-1.838674-4.243094 4.950276c-1.697238-0.282873-3.253039-0.565746-5.23315-0.565746-1.838674 0-3.394475 0.141436-4.950276 0.424309l-4.243094-4.808839-3.111602 1.838674 4.525967 3.535911c-5.091713 1.555801-7.637569 4.101657-7.637569 4.101658l4.80884 5.798895 6.364641-2.40442h7.779005l6.364641 2.40442 4.80884-5.798895c0.424309 0.141436-1.838674-2.40442-6.788951-3.818785z m-16.123756 3.960221c-0.424309 0-0.848619-0.424309-0.848619-0.848619s0.424309-0.848619 0.848619-0.848618 0.848619 0.424309 0.848618 0.848618-0.424309 0.848619-0.848618 0.848619z m15.840884 0c-0.424309 0-0.848619-0.424309-0.848619-0.848619s0.424309-0.848619 0.848619-0.848618 0.848619 0.424309 0.848618 0.848618-0.424309 0.848619-0.848618 0.848619z" fill="#C5CBC9" p-id="4996"></path></svg>