<?xml version="1.0" standalone="no"?><!DOCTYPE svg PUBLIC "-//W3C//DTD SVG 1.1//EN" "http://www.w3.org/Graphics/SVG/1.1/DTD/svg11.dtd"><svg t="1705397255690" class="icon" viewBox="0 0 1026 1024" version="1.1" xmlns="http://www.w3.org/2000/svg" p-id="3737" xmlns:xlink="http://www.w3.org/1999/xlink" width="48.09375" height="48"><path d="M0.696119 0.693297h1021.920109v1021.920109H0.696119z" fill="#404442" p-id="3738"></path><path d="M1023.309525 1023.306703H0.002822V0h1023.306703v1023.306703zM1.389417 1021.920108h1020.533513V1.386594H1.389417v1020.533514z" fill="#B3B3B3" p-id="3739"></path><path d="M0.696119 983.372783h1021.920109" fill="#404442" p-id="3740"></path><path d="M0.696119 982.679485h1021.920109v1.386595H0.696119z" fill="#B3B3B3" p-id="3741"></path><path d="M0.696119 943.9935h1021.920109" fill="#404442" p-id="3742"></path><path d="M0.696119 943.300203h1021.920109v1.386595H0.696119z" fill="#B3B3B3" p-id="3743"></path><path d="M0.696119 865.373595h1021.920109" fill="#404442" p-id="3744"></path><path d="M0.696119 864.680298h1021.920109v1.386594H0.696119z" fill="#B3B3B3" p-id="3745"></path><path d="M0.696119 826.548951h1021.920109" fill="#404442" p-id="3746"></path><path d="M0.696119 825.855653h1021.920109v1.386595H0.696119z" fill="#B3B3B3" p-id="3747"></path><path d="M0.696119 905.168856h1021.920109" fill="#404442" p-id="3748"></path><path d="M0.696119 903.920921h1021.920109v2.49587H0.696119z" fill="#CCCCCC" p-id="3749"></path><path d="M0.696119 786.75369h1021.920109" fill="#404442" p-id="3750"></path><path d="M0.696119 786.060393h1021.920109v1.386594H0.696119z" fill="#B3B3B3" p-id="3751"></path><path d="M0.696119 747.513067h1021.920109" fill="#404442" p-id="3752"></path><path d="M0.696119 746.81977h1021.920109v1.386594H0.696119z" fill="#B3B3B3" p-id="3753"></path><path d="M2.082714 669.30914h1021.920108" fill="#404442" p-id="3754"></path><path d="M2.082714 668.615843h1021.920108v1.386594H2.082714z" fill="#B3B3B3" p-id="3755"></path><path d="M0.696119 707.717806h1021.920109" fill="#404442" p-id="3756"></path><path d="M0.696119 706.469871h1021.920109v2.49587H0.696119z" fill="#CCCCCC" p-id="3757"></path><path d="M0.696119 629.513879h1021.920109" fill="#404442" p-id="3758"></path><path d="M0.696119 628.820582h1021.920109v1.386595H0.696119z" fill="#B3B3B3" p-id="3759"></path><path d="M0.696119 590.273257h1021.920109" fill="#404442" p-id="3760"></path><path d="M0.696119 589.579959h1021.920109v1.386595H0.696119z" fill="#B3B3B3" p-id="3761"></path><path d="M0.696119 551.032634h1021.920109" fill="#404442" p-id="3762"></path><path d="M0.696119 550.339336h1021.920109v1.386595H0.696119z" fill="#B3B3B3" p-id="3763"></path><path d="M0.696119 511.653351h1021.920109" fill="#404442" p-id="3764"></path><path d="M0.696119 510.405416h1021.920109v2.49587H0.696119z" fill="#CCCCCC" p-id="3765"></path><path d="M0.696119 472.412729h1021.920109" fill="#404442" p-id="3766"></path><path d="M0.696119 471.719431h1021.920109v1.386595H0.696119z" fill="#B3B3B3" p-id="3767"></path><path d="M0.696119 433.033446h1021.920109" fill="#404442" p-id="3768"></path><path d="M0.696119 432.340149h1021.920109v1.386594H0.696119z" fill="#B3B3B3" p-id="3769"></path><path d="M0.696119 393.792823h1021.920109" fill="#404442" p-id="3770"></path><path d="M0.696119 393.099526h1021.920109v1.386595H0.696119z" fill="#B3B3B3" p-id="3771"></path><path d="M0.696119 354.968179h1021.920109" fill="#404442" p-id="3772"></path><path d="M0.696119 354.274882h1021.920109v1.386594H0.696119z" fill="#B3B3B3" p-id="3773"></path><path d="M0.696119 314.202302h1021.920109" fill="#404442" p-id="3774"></path><path d="M0.696119 312.954367h1021.920109v2.49587H0.696119z" fill="#CCCCCC" p-id="3775"></path><path d="M0.696119 275.793636h1021.920109" fill="#404442" p-id="3776"></path><path d="M0.696119 275.100339h1021.920109v1.386594H0.696119z" fill="#B3B3B3" p-id="3777"></path><path d="M0.696119 236.553013h1021.920109" fill="#404442" p-id="3778"></path><path d="M0.696119 235.859716h1021.920109v1.386594H0.696119z" fill="#B3B3B3" p-id="3779"></path><path d="M0.696119 197.728368h1021.920109" fill="#404442" p-id="3780"></path><path d="M0.696119 197.035071h1021.920109v1.386595H0.696119z" fill="#B3B3B3" p-id="3781"></path><path d="M0.696119 118.137847h1021.920109" fill="#404442" p-id="3782"></path><path d="M0.696119 116.889912h1021.920109v2.49587H0.696119z" fill="#CCCCCC" p-id="3783"></path><path d="M0.696119 157.933108h1021.920109" fill="#404442" p-id="3784"></path><path d="M0.696119 157.23981h1021.920109v1.386595H0.696119z" fill="#B3B3B3" p-id="3785"></path><path d="M0.696119 79.313202h1021.920109" fill="#404442" p-id="3786"></path><path d="M0.696119 78.619905h1021.920109v1.386595H0.696119z" fill="#B3B3B3" p-id="3787"></path><path d="M0.696119 39.93392h1021.920109" fill="#404442" p-id="3788"></path><path d="M0.696119 39.240623h1021.920109v1.386594H0.696119z" fill="#B3B3B3" p-id="3789"></path><path d="M983.375605 0.693297v1021.920109" fill="#404442" p-id="3790"></path><path d="M982.682308 0.693297h1.386594v1021.920109h-1.386594z" fill="#B3B3B3" p-id="3791"></path><path d="M943.996322 0.693297v1021.920109" fill="#404442" p-id="3792"></path><path d="M943.303025 0.693297h1.386595v1021.920109h-1.386595z" fill="#B3B3B3" p-id="3793"></path><path d="M904.7557 0.693297v1021.920109" fill="#404442" p-id="3794"></path><path d="M904.062402 0.693297h1.386595v1021.920109h-1.386595z" fill="#B3B3B3" p-id="3795"></path><path d="M865.376417 0.693297v1021.920109" fill="#404442" p-id="3796"></path><path d="M864.68312 0.693297h1.386594v1021.920109h-1.386594z" fill="#B3B3B3" p-id="3797"></path><path d="M826.551773 2.079892v1021.920108" fill="#404442" p-id="3798"></path><path d="M825.858475 2.079892h1.386595v1021.920108h-1.386595z" fill="#B3B3B3" p-id="3799"></path><path d="M903.785083 0.693297v1021.920109" fill="#404442" p-id="3800"></path><path d="M902.537148 0.693297h2.49587v1021.920109h-2.49587z" fill="#CCCCCC" p-id="3801"></path><path d="M786.756512 0.693297v1021.920109" fill="#404442" p-id="3802"></path><path d="M786.063215 0.693297h1.386594v1021.920109h-1.386594z" fill="#B3B3B3" p-id="3803"></path><path d="M747.515889 0.693297v1021.920109" fill="#404442" p-id="3804"></path><path d="M746.822592 0.693297h1.386594v1021.920109h-1.386594z" fill="#B3B3B3" p-id="3805"></path><path d="M669.311962 0.693297v1021.920109" fill="#404442" p-id="3806"></path><path d="M668.618665 0.693297h1.386594v1021.920109h-1.386594z" fill="#B3B3B3" p-id="3807"></path><path d="M709.107223 0.693297v1021.920109" fill="#404442" p-id="3808"></path><path d="M707.859288 0.693297h2.49587v1021.920109h-2.49587z" fill="#CCCCCC" p-id="3809"></path><path d="M629.516702 0.693297v1021.920109" fill="#404442" p-id="3810"></path><path d="M628.823404 0.693297h1.386595v1021.920109h-1.386595z" fill="#B3B3B3" p-id="3811"></path><path d="M590.276079 0.693297v1021.920109" fill="#404442" p-id="3812"></path><path d="M589.582781 0.693297h1.386595v1021.920109h-1.386595z" fill="#B3B3B3" p-id="3813"></path><path d="M551.035456 0.693297v1021.920109" fill="#404442" p-id="3814"></path><path d="M550.342159 0.693297h1.386594v1021.920109h-1.386594z" fill="#B3B3B3" p-id="3815"></path><path d="M511.656173 0.693297v1021.920109" fill="#404442" p-id="3816"></path><path d="M510.408238 0.693297h2.49587v1021.920109h-2.49587z" fill="#CCCCCC" p-id="3817"></path><path d="M472.415551 0.693297v1021.920109" fill="#404442" p-id="3818"></path><path d="M471.722253 0.693297h1.386595v1021.920109h-1.386595z" fill="#B3B3B3" p-id="3819"></path><path d="M433.036268 0.693297v1021.920109" fill="#404442" p-id="3820"></path><path d="M432.342971 0.693297h1.386595v1021.920109h-1.386595z" fill="#B3B3B3" p-id="3821"></path><path d="M393.795645 0.693297v1021.920109" fill="#404442" p-id="3822"></path><path d="M393.102348 0.693297h1.386595v1021.920109h-1.386595z" fill="#B3B3B3" p-id="3823"></path><path d="M315.591719 0.693297v1021.920109" fill="#404442" p-id="3824"></path><path d="M314.343784 0.693297h2.49587v1021.920109h-2.49587z" fill="#CCCCCC" p-id="3825"></path><path d="M354.000385 0.693297v1021.920109" fill="#404442" p-id="3826"></path><path d="M353.307088 0.693297h1.386594v1021.920109h-1.386594z" fill="#B3B3B3" p-id="3827"></path><path d="M275.796458 0.693297v1021.920109" fill="#404442" p-id="3828"></path><path d="M275.103161 0.693297h1.386594v1021.920109h-1.386594z" fill="#B3B3B3" p-id="3829"></path><path d="M236.555835 0.693297v1021.920109" fill="#404442" p-id="3830"></path><path d="M235.862538 0.693297h1.386594v1021.920109h-1.386594z" fill="#B3B3B3" p-id="3831"></path><path d="M118.140669 0.693297v1021.920109" fill="#404442" p-id="3832"></path><path d="M116.892734 0.693297h2.49587v1021.920109h-2.49587z" fill="#CCCCCC" p-id="3833"></path><path d="M157.93593 0.693297v1021.920109" fill="#404442" p-id="3834"></path><path d="M157.242633 0.693297h1.386594v1021.920109h-1.386594z" fill="#B3B3B3" p-id="3835"></path><path d="M195.37398 2.079892v1021.920108" fill="#404442" p-id="3836"></path><path d="M194.680683 2.079892h1.386594v1021.920108h-1.386594z" fill="#B3B3B3" p-id="3837"></path><path d="M79.316025 0.693297v1021.920109" fill="#404442" p-id="3838"></path><path d="M78.622727 0.693297h1.386595v1021.920109h-1.386595z" fill="#B3B3B3" p-id="3839"></path><path d="M39.936742 0.693297v1021.920109" fill="#404442" p-id="3840"></path><path d="M39.243445 0.693297h1.386594v1021.920109h-1.386594z" fill="#B3B3B3" p-id="3841"></path><path d="M471.722253 920.144076v24.404062h6.101016v-9.012864h10.815437v-6.101015h-10.815437v-3.466486h17.748409v-5.823697h-17.748409zM503.891245 938.447123v-18.303047h-5.962357v24.404062H517.895849v-6.101015zM545.489078 929.850237h-16.777793c-1.109276 0-1.802573-0.831957-1.802573-1.802573 0-1.109276 0.831957-1.802573 1.802573-1.802573h15.668517v-5.962356h-15.807176c-4.298443 0-7.764929 3.466486-7.764929 7.903589s3.466486 7.903588 7.764929 7.903588h16.777793c1.525254 0 1.525254 2.634529 0 2.634529h-25.236019v5.962357h25.236019c4.021124 0 6.655653-3.327827 6.655653-7.348951 0-4.159783-2.49587-7.48761-6.516994-7.48761zM576.132815 930.820853v7.62627h-15.807176v-18.303047h-5.962357v18.303047c0 3.327827 2.634529 5.962356 5.962357 5.962356h15.807176c3.189167 0 5.962356-2.634529 5.962356-5.962356v-2.218552l-5.962356-5.407718zM604.003364 944.548138l-22.046852-24.404062h-5.823697V928.047664l5.823697 5.407719V929.01828l14.004604 15.529858z" fill="#C5CBC9" p-id="3842"></path><path d="M604.003364 938.863101v-18.857685h-16.916453z" fill="#C5CBC9" p-id="3843"></path><path d="M425.964637 932.068788h14.143263v6.794313h-14.143263zM425.964637 922.917265h14.143263v1.525254h-14.143263zM425.964637 925.135816h14.143263v1.525254h-14.143263zM425.964637 927.493026h14.143263v1.525254h-14.143263zM425.964637 929.850237h14.143263v1.525254h-14.143263zM433.452247 946.62803l4.85308-5.269059v-1.663913h-10.399458v1.663913l4.85308 5.269059zM421.527534 961.880569c-1.941232 0-2.911848-0.415978-2.911848-1.109276-0.138659-1.109276 2.357211-1.663913 3.327827-1.663913 3.050508-0.415978 29.534462-3.466486 33.832904-3.882465 3.466486-0.415978 7.348951-0.970616 7.348951-1.386594 0-0.415978-14.004604 0.138659-20.521598 0.554638-2.357211 0.138659-4.437102 0.415978-6.101016 0.415978-1.525254 0.138659-3.189167 0.138659-4.99174 0.415978-13.172647 0.831957-16.223155 0.970616-16.777792 0.415979-0.138659-0.138659-0.138659-0.277319-0.13866-0.415979 0-0.554638 0-1.109276 8.735545-2.218551 4.437102-0.554638 9.012864-1.109276 9.706161-1.109275 2.634529-0.277319 24.542722-2.357211 24.542722-2.911849 0-0.554638-12.618009-0.970616-15.113879-0.970616h-10.12214v-1.109275h10.12214c1.109276 0 5.407718 0.138659 9.151523 0.415978 8.042248 0.554638 8.042248 1.109276 8.042248 1.663913 0 0.554638 0 0.970616-12.895329 2.49587-6.239675 0.693297-12.895328 1.386594-13.727285 1.525254-3.327827 0.415978-15.807177 1.663913-15.807176 2.079892 0 0.554638 9.567502-0.693297 14.143263-0.970616 1.802573-0.138659 3.466486-0.277319 5.130399-0.415979 1.663913-0.138659 3.605146-0.277319 6.101016-0.415978 11.231415-0.970616 20.105619-1.663913 21.630873-0.138659 0.277319 0.277319 0.415978 0.554638 0.415979 0.693297 0 0.415978 0 0.693297-2.63453 1.386594-0.970616 0.277319-3.050508 0.693297-5.823696 0.970616-4.298443 0.415978-30.782397 3.466486-33.832905 3.882465-0.970616 0.138659-2.079892 0.277319-2.079892 0.554638s0.831957 0.138659 1.802573 0.138659c4.159783-0.138659 25.929316 0 26.067976 0v1.109276c-0.138659 0-21.908192-0.138659-26.067976 0h-0.554638zM448.982104 913.211104L443.713046 919.312119l-7.210292-2.49587h-6.932972l-7.210291 2.49587-5.130399-6.101015-2.773189 2.079891 6.932972 5.1304 4.298443 1.247935h14.97522l4.298443-1.247935 6.932972-5.1304-2.911849-2.079891z m-9.706161 7.071631h-12.34069c-1.247935 0-2.357211-0.693297-2.357211-0.693297l5.1304-1.802573h6.655653l5.130399 1.802573c0.138659 0.138659-1.109276 0.693297-2.218551 0.693297z" fill="#C5CBC9" p-id="3844"></path><path d="M440.801197 908.219364l4.575762-3.743805-3.050508-1.802573-4.159783 4.85308c-1.663913-0.277319-3.189167-0.554638-5.1304-0.554637-1.802573 0-3.327827 0.138659-4.85308 0.415978l-4.159784-4.714421-3.050507 1.802573 4.437102 3.466486c-4.99174 1.525254-7.48761 4.021124-7.48761 4.021124l4.714421 5.685037 6.239675-2.357211h7.626269l6.239675 2.357211 4.714422-5.685037c0.415978 0.138659-1.663913-2.357211-6.655654-3.743805z m-15.668517 3.882464c-0.415978 0-0.831957-0.415978-0.831957-0.831957s0.415978-0.831957 0.831957-0.831956 0.831957 0.415978 0.831957 0.831956c-0.138659 0.415978-0.554638 0.831957-0.831957 0.831957z m15.529858 0c-0.415978 0-0.831957-0.415978-0.831957-0.831957s0.415978-0.831957 0.831957-0.831956 0.831957 0.415978 0.831956 0.831956-0.415978 0.831957-0.831956 0.831957z" fill="#C5CBC9" p-id="3845"></path></svg>