<?xml version="1.0" standalone="no"?><!DOCTYPE svg PUBLIC "-//W3C//DTD SVG 1.1//EN" "http://www.w3.org/Graphics/SVG/1.1/DTD/svg11.dtd"><svg t="1705309166505" class="icon" viewBox="0 0 1025 1024" version="1.1" xmlns="http://www.w3.org/2000/svg" p-id="4518" xmlns:xlink="http://www.w3.org/1999/xlink" width="48.046875" height="48"><path d="M0.602777 0.601362h1022.797275v1022.797276H0.602777z" fill="#404442" p-id="4519"></path><path d="M1024.001414 1024H0.001414V0h1024v1024zM1.204139 1022.797275h1021.59455V1.202725H1.204139v1021.59455z" fill="#B3B3B3" p-id="4520"></path><path d="M0.602777 989.24125h1022.797275" fill="#404442" p-id="4521"></path><path d="M0.602777 988.639887h1022.797275v1.202725H0.602777z" fill="#B3B3B3" p-id="4522"></path><path d="M0.602777 955.204134h1022.797275" fill="#404442" p-id="4523"></path><path d="M0.602777 954.602772h1022.797275v1.202725H0.602777z" fill="#B3B3B3" p-id="4524"></path><path d="M0.602777 921.167019h1022.797275" fill="#404442" p-id="4525"></path><path d="M0.602777 920.565657h1022.797275v1.202724H0.602777z" fill="#B3B3B3" p-id="4526"></path><path d="M0.602777 887.009631h1022.797275" fill="#404442" p-id="4527"></path><path d="M0.602777 886.408269h1022.797275v1.202725H0.602777z" fill="#B3B3B3" p-id="4528"></path><path d="M0.602777 852.972516h1022.797275" fill="#404442" p-id="4529"></path><path d="M0.602777 851.890063h1022.797275v2.164905H0.602777z" fill="#CCCCCC" p-id="4530"></path><path d="M0.602777 818.815128h1022.797275" fill="#404442" p-id="4531"></path><path d="M0.602777 818.213766h1022.797275v1.202724H0.602777z" fill="#B3B3B3" p-id="4532"></path><path d="M0.602777 784.778013h1022.797275" fill="#404442" p-id="4533"></path><path d="M0.602777 784.17665h1022.797275v1.202725H0.602777z" fill="#B3B3B3" p-id="4534"></path><path d="M0.602777 750.620625h1022.797275" fill="#404442" p-id="4535"></path><path d="M0.602777 750.019262h1022.797275v1.202725H0.602777z" fill="#B3B3B3" p-id="4536"></path><path d="M0.602777 716.58351h1022.797275" fill="#404442" p-id="4537"></path><path d="M0.602777 715.982147h1022.797275v1.202725H0.602777z" fill="#B3B3B3" p-id="4538"></path><path d="M0.602777 682.426122h1022.797275" fill="#404442" p-id="4539"></path><path d="M0.602777 681.343669h1022.797275v2.164905H0.602777z" fill="#CCCCCC" p-id="4540"></path><path d="M0.602777 648.389006h1022.797275" fill="#404442" p-id="4541"></path><path d="M0.602777 647.787644h1022.797275v1.202725H0.602777z" fill="#B3B3B3" p-id="4542"></path><path d="M0.602777 614.231619h1022.797275" fill="#404442" p-id="4543"></path><path d="M0.602777 613.630256h1022.797275v1.202725H0.602777z" fill="#B3B3B3" p-id="4544"></path><path d="M0.602777 580.194503h1022.797275" fill="#404442" p-id="4545"></path><path d="M0.602777 579.593141h1022.797275v1.202725H0.602777z" fill="#B3B3B3" p-id="4546"></path><path d="M0.602777 546.037115h1022.797275" fill="#404442" p-id="4547"></path><path d="M0.602777 545.435753h1022.797275v1.202725H0.602777z" fill="#B3B3B3" p-id="4548"></path><path d="M0.602777 512h1022.797275" fill="#404442" p-id="4549"></path><path d="M0.602777 510.917548h1022.797275v2.164904H0.602777z" fill="#CCCCCC" p-id="4550"></path><path d="M0.602777 477.962885h1022.797275" fill="#404442" p-id="4551"></path><path d="M0.602777 477.361522h1022.797275v1.202725H0.602777z" fill="#B3B3B3" p-id="4552"></path><path d="M0.602777 443.805497h1022.797275" fill="#404442" p-id="4553"></path><path d="M0.602777 443.204134h1022.797275v1.202725H0.602777z" fill="#B3B3B3" p-id="4554"></path><path d="M0.602777 409.768381h1022.797275" fill="#404442" p-id="4555"></path><path d="M0.602777 409.167019h1022.797275v1.202725H0.602777z" fill="#B3B3B3" p-id="4556"></path><path d="M0.602777 375.610994h1022.797275" fill="#404442" p-id="4557"></path><path d="M0.602777 375.009631h1022.797275v1.202725H0.602777z" fill="#B3B3B3" p-id="4558"></path><path d="M0.602777 341.573878h1022.797275" fill="#404442" p-id="4559"></path><path d="M0.602777 340.491426h1022.797275v2.164905H0.602777z" fill="#CCCCCC" p-id="4560"></path><path d="M0.602777 307.41649h1022.797275" fill="#404442" p-id="4561"></path><path d="M0.602777 306.815128h1022.797275v1.202725H0.602777z" fill="#B3B3B3" p-id="4562"></path><path d="M0.602777 273.379375h1022.797275" fill="#404442" p-id="4563"></path><path d="M0.602777 272.778013h1022.797275v1.202725H0.602777z" fill="#B3B3B3" p-id="4564"></path><path d="M0.602777 239.221987h1022.797275" fill="#404442" p-id="4565"></path><path d="M0.602777 238.620625h1022.797275v1.202725H0.602777z" fill="#B3B3B3" p-id="4566"></path><path d="M0.602777 205.184872h1022.797275" fill="#404442" p-id="4567"></path><path d="M0.602777 204.58351h1022.797275v1.202724H0.602777z" fill="#B3B3B3" p-id="4568"></path><path d="M0.602777 171.027484h1022.797275" fill="#404442" p-id="4569"></path><path d="M0.602777 169.945032h1022.797275v2.164905H0.602777z" fill="#CCCCCC" p-id="4570"></path><path d="M0.602777 136.990369h1022.797275" fill="#404442" p-id="4571"></path><path d="M0.602777 136.389006h1022.797275v1.202725H0.602777z" fill="#B3B3B3" p-id="4572"></path><path d="M0.602777 102.832981h1022.797275" fill="#404442" p-id="4573"></path><path d="M0.602777 102.231619h1022.797275v1.202724H0.602777z" fill="#B3B3B3" p-id="4574"></path><path d="M0.602777 68.795866h1022.797275" fill="#404442" p-id="4575"></path><path d="M0.602777 68.194503h1022.797275v1.202725H0.602777z" fill="#B3B3B3" p-id="4576"></path><path d="M0.602777 34.638478h1022.797275" fill="#404442" p-id="4577"></path><path d="M0.602777 34.037115h1022.797275v1.202725H0.602777z" fill="#B3B3B3" p-id="4578"></path><path d="M989.242664 0.601362v1022.797276" fill="#404442" p-id="4579"></path><path d="M988.641302 0.601362h1.202724v1022.797276h-1.202724z" fill="#B3B3B3" p-id="4580"></path><path d="M955.205549 0.601362v1022.797276" fill="#404442" p-id="4581"></path><path d="M954.604186 0.601362h1.202725v1022.797276h-1.202725z" fill="#B3B3B3" p-id="4582"></path><path d="M921.168433 0.601362v1022.797276" fill="#404442" p-id="4583"></path><path d="M920.567071 0.601362h1.202725v1022.797276h-1.202725z" fill="#B3B3B3" p-id="4584"></path><path d="M887.011046 0.601362v1022.797276" fill="#404442" p-id="4585"></path><path d="M886.409683 0.601362h1.202725v1022.797276h-1.202725z" fill="#B3B3B3" p-id="4586"></path><path d="M852.97393 0.601362v1022.797276" fill="#404442" p-id="4587"></path><path d="M851.891478 0.601362h2.164905v1022.797276h-2.164905z" fill="#CCCCCC" p-id="4588"></path><path d="M818.816542 0.601362v1022.797276" fill="#404442" p-id="4589"></path><path d="M818.21518 0.601362h1.202725v1022.797276h-1.202725z" fill="#B3B3B3" p-id="4590"></path><path d="M784.779427 0.601362v1022.797276" fill="#404442" p-id="4591"></path><path d="M784.178065 0.601362h1.202724v1022.797276h-1.202724z" fill="#B3B3B3" p-id="4592"></path><path d="M750.622039 0.601362v1022.797276" fill="#404442" p-id="4593"></path><path d="M750.020677 0.601362h1.202725v1022.797276h-1.202725z" fill="#B3B3B3" p-id="4594"></path><path d="M716.584924 0.601362v1022.797276" fill="#404442" p-id="4595"></path><path d="M715.983561 0.601362h1.202725v1022.797276h-1.202725z" fill="#B3B3B3" p-id="4596"></path><path d="M682.427536 0.601362v1022.797276" fill="#404442" p-id="4597"></path><path d="M681.345084 0.601362h2.164904v1022.797276h-2.164904z" fill="#CCCCCC" p-id="4598"></path><path d="M648.390421 0.601362v1022.797276" fill="#404442" p-id="4599"></path><path d="M647.789058 0.601362h1.202725v1022.797276h-1.202725z" fill="#B3B3B3" p-id="4600"></path><path d="M614.233033 0.601362v1022.797276" fill="#404442" p-id="4601"></path><path d="M613.63167 0.601362h1.202725v1022.797276h-1.202725z" fill="#B3B3B3" p-id="4602"></path><path d="M580.195917 0.601362v1022.797276" fill="#404442" p-id="4603"></path><path d="M579.594555 0.601362h1.202725v1022.797276h-1.202725z" fill="#B3B3B3" p-id="4604"></path><path d="M546.03853 0.601362v1022.797276" fill="#404442" p-id="4605"></path><path d="M545.437167 0.601362h1.202725v1022.797276h-1.202725z" fill="#B3B3B3" p-id="4606"></path><path d="M512.001414 0.601362v1022.797276" fill="#404442" p-id="4607"></path><path d="M510.918962 0.601362h2.164905v1022.797276h-2.164905z" fill="#CCCCCC" p-id="4608"></path><path d="M477.964299 0.601362v1022.797276" fill="#404442" p-id="4609"></path><path d="M477.362937 0.601362h1.202724v1022.797276h-1.202724z" fill="#B3B3B3" p-id="4610"></path><path d="M443.806911 0.601362v1022.797276" fill="#404442" p-id="4611"></path><path d="M443.205549 0.601362h1.202725v1022.797276h-1.202725z" fill="#B3B3B3" p-id="4612"></path><path d="M409.769796 0.601362v1022.797276" fill="#404442" p-id="4613"></path><path d="M409.168433 0.601362h1.202725v1022.797276h-1.202725z" fill="#B3B3B3" p-id="4614"></path><path d="M375.612408 0.601362v1022.797276" fill="#404442" p-id="4615"></path><path d="M375.011046 0.601362h1.202724v1022.797276h-1.202724z" fill="#B3B3B3" p-id="4616"></path><path d="M341.575293 0.601362v1022.797276" fill="#404442" p-id="4617"></path><path d="M340.49284 0.601362h2.164905v1022.797276h-2.164905z" fill="#CCCCCC" p-id="4618"></path><path d="M307.417905 0.601362v1022.797276" fill="#404442" p-id="4619"></path><path d="M306.816542 0.601362h1.202725v1022.797276h-1.202725z" fill="#B3B3B3" p-id="4620"></path><path d="M273.380789 0.601362v1022.797276" fill="#404442" p-id="4621"></path><path d="M272.779427 0.601362h1.202725v1022.797276h-1.202725z" fill="#B3B3B3" p-id="4622"></path><path d="M239.223402 0.601362v1022.797276" fill="#404442" p-id="4623"></path><path d="M238.622039 0.601362h1.202725v1022.797276h-1.202725z" fill="#B3B3B3" p-id="4624"></path><path d="M205.186286 0.601362v1022.797276" fill="#404442" p-id="4625"></path><path d="M204.584924 0.601362h1.202725v1022.797276h-1.202725z" fill="#B3B3B3" p-id="4626"></path><path d="M171.028898 0.601362v1022.797276" fill="#404442" p-id="4627"></path><path d="M169.946446 0.601362h2.164905v1022.797276h-2.164905z" fill="#CCCCCC" p-id="4628"></path><path d="M136.991783 0.601362v1022.797276" fill="#404442" p-id="4629"></path><path d="M136.390421 0.601362h1.202725v1022.797276h-1.202725z" fill="#B3B3B3" p-id="4630"></path><path d="M102.834395 0.601362v1022.797276" fill="#404442" p-id="4631"></path><path d="M102.233033 0.601362h1.202725v1022.797276h-1.202725z" fill="#B3B3B3" p-id="4632"></path><path d="M68.79728 0.601362v1022.797276" fill="#404442" p-id="4633"></path><path d="M68.195917 0.601362h1.202725v1022.797276h-1.202725z" fill="#B3B3B3" p-id="4634"></path><path d="M34.639892 0.601362v1022.797276" fill="#404442" p-id="4635"></path><path d="M34.03853 0.601362h1.202725v1022.797276h-1.202725z" fill="#B3B3B3" p-id="4636"></path><path d="M459.442335 928.864459v25.738313h6.374442v-9.501527h11.425887v-6.374442h-11.425887v-3.608175H484.699559v-6.254169h-18.882782zM493.359178 948.22833v-19.363871H487.105008V954.602772h21.047687v-6.374442zM537.258638 939.08762H519.578581c-1.202725 0-1.92436-0.96218-1.92436-1.924359 0-1.202725 0.96218-1.92436 1.92436-1.92436h16.477332v-6.374442h-16.597604c-4.570355 0-8.178529 3.728447-8.17853 8.298802 0 4.690627 3.728447 8.298802 8.17853 8.298801h17.680056c1.563542 0 1.563542 2.88654 0 2.88654h-26.700493v6.374442h26.700493c4.209537 0 6.975805-3.487902 6.975805-7.817712 0-4.209537-2.645995-7.817712-6.855532-7.817712zM569.491666 940.170073v8.058257h-16.597604v-19.363871h-6.374442v19.363871c0 3.487902 2.766267 6.374442 6.374442 6.374442h16.597604c3.36763 0 6.374442-2.88654 6.374442-6.374442v-2.285178l-6.374442-5.773079zM599.078699 954.723044l-23.332864-25.858585h-6.254169v8.298802l6.254169 5.773079v-4.690627l14.793517 16.477331z" fill="#C5CBC9" p-id="4637"></path><path d="M599.078699 948.589147v-19.844961h-17.920602z" fill="#C5CBC9" p-id="4638"></path><path d="M411.092793 941.49307h14.913789v7.21635h-14.913789zM411.092793 931.871271h14.913789v1.563542h-14.913789zM411.092793 934.156448h14.913789v1.563543h-14.913789zM411.092793 936.561898h14.913789v1.563542h-14.913789zM411.092793 939.08762h14.913789v1.563543h-14.913789zM419.030778 956.887949l5.051444-5.652807v-1.683815h-10.824524v1.683815l5.051445 5.652807zM406.522439 972.884191c-2.164905 0-3.006812-0.48109-3.006813-1.202725-0.120272-1.202725 2.40545-1.683815 3.487902-1.804088 3.247357-0.48109 31.150576-3.728447 35.720931-4.089264 3.728447-0.48109 7.69744-1.082452 7.697439-1.44327 0-0.48109-14.793517 0.120272-21.649048 0.601362-2.525722 0.240545-4.690627 0.48109-6.374443 0.48109-1.563542 0.120272-3.36763 0.240545-5.291989 0.48109-13.951609 0.96218-17.078694 1.082452-17.680057 0.48109-0.120272-0.120272-0.240545-0.360817-0.240545-0.48109 0-0.601362 0-1.202725 9.260982-2.285177 4.690627-0.48109 9.501527-1.202725 10.223162-1.202725 2.88654-0.360817 25.858586-2.525722 25.858586-3.006812 0-0.601362-13.350247-1.082452-15.875969-1.082453h-10.583979v-1.202725h10.583979c1.202725 0 5.652807 0.240545 9.742072 0.48109 8.539347 0.601362 8.539347 1.202725 8.539347 1.683815 0 0.601362 0 1.082452-13.590792 2.645995-6.614987 0.721635-13.590792 1.44327-14.552971 1.563542-3.608175 0.48109-16.717876 1.683815-16.717877 2.164905s10.102889-0.721635 14.913789-1.082452c1.92436-0.120272 3.728447-0.360817 5.412262-0.48109s3.84872-0.360817 6.374443-0.48109c11.906977-1.082452 21.288231-1.683815 22.851773-0.240545 0.360817 0.360817 0.48109 0.48109 0.48109 0.721635 0 0.48109 0 0.721635-2.88654 1.44327-1.082452 0.360817-3.247357 0.721635-6.133897 1.082452-4.570355 0.48109-32.473573 3.728447-35.72093 4.089265-1.082452 0.240545-2.164905 0.360817-2.164905 0.48109 0 0.240545 0.96218 0.120272 1.92436 0.120272 4.450082-0.120272 27.422128 0 27.542401 0v1.202725c-0.240545 0-23.092319-0.120272-27.542401 0-0.360817 0.360817-0.48109 0.360817-0.601362 0.360818zM435.387837 921.527837l-5.532535 6.374442-7.577167-2.645995H414.941513l-7.577167 2.645995-5.532535-6.374442-3.006812 2.164904 7.336622 5.532535 4.570355 1.322997h15.755696l4.570355-1.322997 7.336622-5.532535-3.006812-2.164904z m-10.223162 7.577167h-12.989429c-1.322997 0-2.525722-0.721635-2.525723-0.721635l5.412262-1.92436h7.21635l5.412262 1.92436c0 0.120272-1.322997 0.721635-2.525722 0.721635z" fill="#C5CBC9" p-id="4639"></path><path d="M426.84849 916.235847l4.810899-3.84872-3.127084-1.92436-4.450083 5.051445c-1.683815-0.360817-3.36763-0.48109-5.532534-0.48109-1.92436 0-3.487902 0.240545-5.051445 0.48109l-4.32981-4.931172-3.127084 1.92436 4.690627 3.728447c-5.29199 1.563542-7.937984 4.209537-7.937985 4.209537l4.931172 6.013625 6.614988-2.525723h8.058256l6.614988 2.525723 4.931172-6.013625c0.360817 0-1.92436-2.645995-7.096077-4.209537z m-16.717877 4.089265c-0.48109 0-0.841907-0.48109-0.841907-0.841908 0-0.48109 0.48109-0.841907 0.841907-0.841907s0.841907 0.48109 0.841908 0.841907c0 0.48109-0.360817 0.841907-0.841908 0.841908z m16.477332 0c-0.48109 0-0.841907-0.48109-0.841908-0.841908 0-0.48109 0.48109-0.841907 0.841908-0.841907s0.841907 0.48109 0.841907 0.841907c0 0.48109-0.360817 0.841907-0.841907 0.841908z" fill="#C5CBC9" p-id="4640"></path></svg>