<?xml version="1.0" standalone="no"?><!DOCTYPE svg PUBLIC "-//W3C//DTD SVG 1.1//EN" "http://www.w3.org/Graphics/SVG/1.1/DTD/svg11.dtd"><svg t="1698055763553" class="icon" viewBox="0 0 1024 1024" version="1.1" xmlns="http://www.w3.org/2000/svg" p-id="9337" xmlns:xlink="http://www.w3.org/1999/xlink" width="200" height="200"><path d="M100 394.4a35 35 0 0 0 35-35V179.89l196.15 196.16a35 35 0 0 0 49.5-49.5L184.5 130.4H364a35 35 0 0 0 0-70H100a35 35 0 0 0-35 35v264a35 35 0 0 0 35 35zM924 60.4H660a35 35 0 0 0 0 70h179.5L643.35 326.55a35 35 0 0 0 49.5 49.5L889 179.89V359.4a35 35 0 1 0 70 0v-264a35 35 0 0 0-35-35zM364 883.85H184.5l196.15-196.16a35 35 0 0 0-49.5-49.49L135 834.35v-179.5a35 35 0 0 0-70 0v264a35 35 0 0 0 35 35h264a35 35 0 0 0 0-70zM924 619.85a35 35 0 0 0-35 35v179.5L692.85 638.2a35 35 0 0 0-49.5 49.49L839.5 883.85H660a35 35 0 0 0 0 70h264a35 35 0 0 0 35-35v-264a35 35 0 0 0-35-35z" fill="#CCCCCC" p-id="9338"></path></svg>