<?xml version="1.0" standalone="no"?><!DOCTYPE svg PUBLIC "-//W3C//DTD SVG 1.1//EN" "http://www.w3.org/Graphics/SVG/1.1/DTD/svg11.dtd"><svg t="1701940356898" class="icon" viewBox="0 0 1024 1024" version="1.1" xmlns="http://www.w3.org/2000/svg" p-id="7189" xmlns:xlink="http://www.w3.org/1999/xlink" width="15" height="15"><path d="M945.357 245.76h-1.23L525.518 3.686a27.307 27.307 0 0 0-27.307 0L78.507 245.76a27.307 27.307 0 0 0-13.653 23.484v485.239a27.307 27.307 0 0 0 13.653 23.484l419.976 242.346a26.35 26.35 0 0 0 11.742 3.686H512a26.487 26.487 0 0 0 13.653-3.686L944.81 778.24h0.683a27.307 27.307 0 0 0 13.653-23.348V269.517a27.307 27.307 0 0 0-13.79-23.757zM512 58.3l364.27 210.397-366.455 211.627-364.27-210.398zM119.194 317.713l365.772 210.67v421.615L119.194 738.781z m419.84 632.285V525.926l365.772-211.08V738.78z" fill="#15a95d" p-id="7190"></path></svg>