<svg id="图层_1" data-name="图层 1" xmlns="http://www.w3.org/2000/svg" viewBox="0 0 45.91 35"><defs><style>.cls-1{fill:#c9caca;}.cls-2{fill:none;stroke:#20925b;stroke-linecap:round;stroke-linejoin:round;stroke-width:4px;}</style></defs><title>切片软件-准备1</title><rect class="cls-1" x="9" y="27.98" width="14" height="4" rx="2"/><polygon class="cls-1" points="17 35 15 35 13 31.98 19 31.98 17 35"/><path class="cls-1" d="M289.73,33h-2a3,3,0,0,0-3,3v6a3,3,0,0,0,3,3h2a3,3,0,0,0,3-3V36A3,3,0,0,0,289.73,33Zm1,9a1,1,0,0,1-1,1h-2a1,1,0,0,1-1-1V36a1,1,0,0,1,1-1h2a1,1,0,0,1,1,1Z" transform="translate(-272.73 -26.01)"/><path class="cls-1" d="M298.73,26h-20a6,6,0,0,0-6,6V52a6,6,0,0,0,6,6h2V54a2,2,0,0,1,2-2h12a2,2,0,0,1,2,2v4h2a6,6,0,0,0,6-6V32A6,6,0,0,0,298.73,26Zm4,26a4,4,0,0,1-4,4h0V54a4,4,0,0,0-4-4h-12a4,4,0,0,0-4,4v2a4,4,0,0,1-4-4V32a4,4,0,0,1,4-4h20a4,4,0,0,1,4,4Z" transform="translate(-272.73 -26.01)"/><polyline class="cls-2" points="22.82 17.6 30 26 43.91 12.2"/></svg>