<?xml version="1.0" standalone="no"?><!DOCTYPE svg PUBLIC "-//W3C//DTD SVG 1.1//EN" "http://www.w3.org/Graphics/SVG/1.1/DTD/svg11.dtd"><svg t="1701940848890" class="icon" viewBox="0 0 1024 1024" version="1.1" xmlns="http://www.w3.org/2000/svg" p-id="5536" xmlns:xlink="http://www.w3.org/1999/xlink" width="200" height="200"><path d="M666.688 64.896H304.64a12.8 12.8 0 0 0-9.088 3.712l-227.84 227.84A12.8 12.8 0 0 0 64 305.472v640.832c0 7.04 5.76 12.8 12.8 12.8h643.008a12.8 12.8 0 0 0 9.088-3.712l227.776-227.84a12.8 12.8 0 0 0 3.712-9.088V77.696a12.8 12.8 0 0 0-12.8-12.8h-280.896zM277.44 153.344a12.8 12.8 0 0 1 21.888 9.024v125.056a12.8 12.8 0 0 1-12.8 12.8H161.472a12.8 12.8 0 0 1-9.024-21.888l124.992-124.992z m-166.528 206.72c0-7.04 5.76-12.8 12.8-12.8h162.816c7.04 0 12.8 5.76 12.8 12.8v325.12a12.8 12.8 0 0 1-3.776 9.024L132.8 856.96a12.8 12.8 0 0 1-21.888-9.024V360.064z m567.168 539.136a12.8 12.8 0 0 1-12.8 12.8H175.168a12.8 12.8 0 0 1-9.024-21.824l162.56-162.688a12.8 12.8 0 0 1 9.024-3.776h327.552c7.04 0 12.8 5.76 12.8 12.8v162.688z m0-235.328a12.8 12.8 0 0 1-12.8 12.8H359.168a12.8 12.8 0 0 1-12.8-12.8V360.064c0-7.04 5.76-12.8 12.8-12.8h306.112c7.04 0 12.8 5.76 12.8 12.8v303.808z m17.536-367.424a12.8 12.8 0 0 1-9.088 3.776H359.168a12.8 12.8 0 0 1-12.8-12.8V124.608c0-7.04 5.76-12.8 12.8-12.8h490.048a12.8 12.8 0 0 1 9.088 21.824l-162.688 162.816z m51.392 574.08a12.8 12.8 0 0 1-21.888-9.024v-125.248c0-7.04 5.76-12.8 12.8-12.8h124.992a12.8 12.8 0 0 1 9.024 21.888l-124.928 125.184z m166.4-193.92l-0.128-0.064H737.92a12.8 12.8 0 0 1-12.8-12.8V338.752a12.8 12.8 0 0 1 3.712-9.024l162.88-162.752a12.8 12.8 0 0 1 21.824 9.088v500.48h-0.128z" fill="#15a95d" p-id="5537"></path><path d="M319.808 110.272l560.32 1.536-188.288 188.416H130.56l189.248-189.952z" fill="#15a95d" fill-opacity=".4" p-id="5538"></path></svg>